<svg xmlns="http://www.w3.org/2000/svg" viewBox="0 0 443.06 103.84"><title>Fichier 2</title><g id="Calque_2" data-name="Calque 2"><g id="Logo"><g id="Icon"><path d="M405.52,24.61,404,19.88s-5.71,1.77-15.36,0l-2.16,4.73A44.66,44.66,0,0,0,405.52,24.61Z" transform="translate(-7.77)" style="fill:#fff;stroke:#fff;stroke-miterlimit:10"/><path d="M408.08,24.21l4.33-1.44A63.52,63.52,0,0,1,406.9,0H386.43s-3.35,26.77-18.7,33.46l.89,4.92S386.43,32.68,390.07,4L403,4.13S404.34,16.34,408.08,24.21Z" transform="translate(-7.77)" style="fill:#939598"/><path d="M405.52,79.86,404,84.47s-5.71-1.73-15.36,0l-2.16-4.61A45.8,45.8,0,0,1,405.52,79.86Z" transform="translate(-7.77)" style="fill:#fff;stroke:#fff;stroke-miterlimit:10"/><path d="M408.08,80.24l4.33,1.41a60.71,60.71,0,0,0-5.51,22.19H386.43s-3.35-26.09-18.7-32.61l.89-4.79S386.43,72,390.07,99.9L403,99.81S404.34,87.92,408.08,80.24Z" transform="translate(-7.77)" style="fill:#939598"/><path d="M379.24,16.44l-2.17,4.23a45.76,45.76,0,0,0-9.82-7.15l-9,7.94s24,29.62-.89,61.61l9,8.37s7.54-4.29,10.92-7.48l2,4.23s-4,3.91-13.49,8.66c-3.12-3.13-13.58-13.78-13.58-13.78s25.79-28.64,0-61.81L366.54,7.78S372.15,10.14,379.24,16.44Z" transform="translate(-7.77)" style="fill:#fff;stroke:#fff;stroke-miterlimit:10"/><path d="M358.38,37.7l1.87,4.82s-3.25,1.38-13,2.76V59.15s11.22,1.89,13,3.35l-1.77,3.94s-5.52-2.07-16.05-3.55V41.44S353.46,39.47,358.38,37.7Z" transform="translate(-7.77)" style="fill:#939598"/><polygon points="437.92 41.34 440.59 44.02 428.06 51.68 440.45 59.4 437.81 62.02 424.22 53.72 405.56 53.65 405.56 49.71 424.04 49.65 437.92 41.34" style="fill:none;stroke:#e6e7e8;stroke-miterlimit:10;stroke-width:1.5px"/><polygon points="416.85 10.88 420.64 10.77 417.66 25.15 431.76 21.38 431.87 25.1 416.53 29.34 403.72 42.92 400.85 40.23 413.42 26.7 416.85 10.88" style="fill:none;stroke:#e6e7e8;stroke-miterlimit:10;stroke-width:1.5px"/><polygon points="416.85 94.06 420.64 94.18 417.66 79.8 431.76 83.56 431.87 79.84 416.53 75.6 403.72 62.02 400.85 64.72 413.42 78.25 416.85 94.06" style="fill:none;stroke:#e6e7e8;stroke-miterlimit:10;stroke-width:1.5px"/><path d="M433.13,13.49a3.2,3.2,0,1,0,3.2,3.19A3.19,3.19,0,0,0,433.13,13.49Z" transform="translate(-7.77)" style="fill:#fff;stroke:#fff;stroke-miterlimit:10"/><path d="M447.13,48.49a3.2,3.2,0,1,0,3.2,3.19A3.19,3.19,0,0,0,447.13,48.49Z" transform="translate(-7.77)" style="fill:#939598;stroke:#939598;stroke-miterlimit:10"/><path d="M433.13,84.47a3.2,3.2,0,1,0,3.2,3.19A3.19,3.19,0,0,0,433.13,84.47Z" transform="translate(-7.77)" style="fill:#fff;stroke:#fff;stroke-miterlimit:10"/><path d="M395.22,35.74A17.06,17.06,0,1,0,412.28,52.8,17.06,17.06,0,0,0,395.22,35.74Z" transform="translate(-7.77)" style="fill:none;stroke:#e6e7e8;stroke-miterlimit:10;stroke-width:4px"/></g><g id="Text"><path d="M8.2,64.88V59.93H29.45a4.25,4.25,0,0,0,3.06-1,3.5,3.5,0,0,0,1.08-2.69,3.42,3.42,0,0,0-1.08-2.75,4.56,4.56,0,0,0-3.06-.91h-13A10.09,10.09,0,0,1,12.82,52a7.8,7.8,0,0,1-2.73-1.67,7.55,7.55,0,0,1-1.72-2.56,8.57,8.57,0,0,1-.6-3.24,8.84,8.84,0,0,1,.56-3.17A6.81,6.81,0,0,1,10,38.79a8.09,8.09,0,0,1,2.75-1.66,10.83,10.83,0,0,1,3.74-.6H36.86v4.95H16.5a3.65,3.65,0,0,0-2.65.92A3.41,3.41,0,0,0,12.92,45a3.31,3.31,0,0,0,.95,2.54,3.63,3.63,0,0,0,2.6.89h13q4.34,0,6.57,2c1.5,1.35,2.25,3.41,2.25,6.16a9.84,9.84,0,0,1-.55,3.32,7.09,7.09,0,0,1-1.64,2.63,7.53,7.53,0,0,1-2.75,1.74,11.12,11.12,0,0,1-3.88.62Z" transform="translate(-7.77)" style="fill:#fff"/><path d="M55.62,64.88V54.12l-15-17.59h6.67l11,13.06L69.35,36.53h6.32L60.57,54.12V64.88Z" transform="translate(-7.77)" style="fill:#fff"/><path d="M82.57,44.13V64.88H77.85V39.14A3.23,3.23,0,0,1,78.53,37a2.31,2.31,0,0,1,1.86-.8,2.58,2.58,0,0,1,1,.23,3.84,3.84,0,0,1,1,.78L102.5,57V36.29h4.72v26a3.23,3.23,0,0,1-.68,2.18,2.26,2.26,0,0,1-1.78.78,3.16,3.16,0,0,1-2.26-1Z" transform="translate(-7.77)" style="fill:#fff"/><path d="M141.58,64.88l-4.25-7.14H123.91l2.34-4H135l-6.32-10.61L115.76,64.88H110.1l16.31-27.14a3.54,3.54,0,0,1,1-1.17,2.28,2.28,0,0,1,1.4-.43,2.21,2.21,0,0,1,1.39.43,3.74,3.74,0,0,1,1,1.17l16.34,27.14Z" transform="translate(-7.77)" style="fill:#fff"/><path d="M159.13,57V52.21h11.38a5.47,5.47,0,0,0,4.08-1.49,5.3,5.3,0,0,0,1.46-3.9,5.27,5.27,0,0,0-1.46-3.9,5.57,5.57,0,0,0-4.08-1.44h-15v23.4h-4.92V36.53h19.93a12.51,12.51,0,0,1,4.39.72,9.16,9.16,0,0,1,3.26,2,8.73,8.73,0,0,1,2,3.18,12.95,12.95,0,0,1,0,8.4,9.32,9.32,0,0,1-2,3.26,9.07,9.07,0,0,1-3.26,2.12,11.85,11.85,0,0,1-4.39.76Z" transform="translate(-7.77)" style="fill:#fff"/><path d="M184.4,64.88V59.93h21.25a4.25,4.25,0,0,0,3.06-1,3.5,3.5,0,0,0,1.08-2.69,3.42,3.42,0,0,0-1.08-2.75,4.56,4.56,0,0,0-3.06-.91h-13A10.09,10.09,0,0,1,189,52a7.8,7.8,0,0,1-2.73-1.67,7.55,7.55,0,0,1-1.72-2.56,8.57,8.57,0,0,1-.6-3.24,8.84,8.84,0,0,1,.56-3.17,6.81,6.81,0,0,1,1.68-2.52A8.09,8.09,0,0,1,189,37.13a10.83,10.83,0,0,1,3.74-.6h20.36v4.95H192.7a3.65,3.65,0,0,0-2.65.92,3.41,3.41,0,0,0-.93,2.55,3.31,3.31,0,0,0,.95,2.54,3.63,3.63,0,0,0,2.6.89h13q4.33,0,6.57,2c1.5,1.35,2.25,3.41,2.25,6.16a9.84,9.84,0,0,1-.55,3.32,7.09,7.09,0,0,1-1.64,2.63,7.53,7.53,0,0,1-2.75,1.74,11.12,11.12,0,0,1-3.88.62Z" transform="translate(-7.77)" style="fill:#fff"/><path d="M218.72,64.88V36.53H244v4.95h-20.4V59.93h20.44v4.95Zm8.5-30.11V32.55l10-3v3.08Zm0,17.79V48.38H243v4.18Z" transform="translate(-7.77)" style="fill:#939598"/><path d="M257.4,64.88V41.48H246.64V36.53h26.48v4.95H262.36v23.4Z" transform="translate(-7.77)" style="fill:#939598"/><path d="M276.4,64.88V59.93h21.25a4.25,4.25,0,0,0,3.06-1,3.5,3.5,0,0,0,1.08-2.69,3.42,3.42,0,0,0-1.08-2.75,4.56,4.56,0,0,0-3.06-.91h-13A10.07,10.07,0,0,1,281,52a7.8,7.8,0,0,1-2.73-1.67,7.41,7.41,0,0,1-1.72-2.56,8.57,8.57,0,0,1-.6-3.24,8.84,8.84,0,0,1,.56-3.17,6.81,6.81,0,0,1,1.68-2.52A8.09,8.09,0,0,1,281,37.13a10.83,10.83,0,0,1,3.74-.6h20.36v4.95H284.7a3.65,3.65,0,0,0-2.65.92,3.41,3.41,0,0,0-.93,2.55,3.31,3.31,0,0,0,.95,2.54,3.62,3.62,0,0,0,2.59.89h13q4.34,0,6.57,2c1.5,1.35,2.25,3.41,2.25,6.16a9.84,9.84,0,0,1-.55,3.32,7.23,7.23,0,0,1-1.64,2.63,7.53,7.53,0,0,1-2.75,1.74,11.12,11.12,0,0,1-3.88.62Z" transform="translate(-7.77)" style="fill:#939598"/><path d="M18.07,74.83l-.69.52A3.84,3.84,0,0,0,16,74.23a4,4,0,0,0-1.75-.38,3.87,3.87,0,0,0-1.92.5A3.63,3.63,0,0,0,11,75.69a3.74,3.74,0,0,0-.48,1.89,3.56,3.56,0,0,0,1.09,2.66,3.75,3.75,0,0,0,2.75,1.06,3.88,3.88,0,0,0,3-1.43l.69.52a4.45,4.45,0,0,1-1.63,1.28,5.07,5.07,0,0,1-2.17.45,4.47,4.47,0,0,1-3.59-1.52,4.54,4.54,0,0,1-1.11-3.09,4.32,4.32,0,0,1,1.34-3.21A4.61,4.61,0,0,1,14.26,73a4.81,4.81,0,0,1,2.2.49A4.31,4.31,0,0,1,18.07,74.83Z" transform="translate(-7.77)" style="fill:#e6e7e8;stroke:#e6e7e8;stroke-miterlimit:10;stroke-width:0.2750000059604645px"/><path d="M21.58,73.21h.86v7.85h3.35v.84H21.58Z" transform="translate(-7.77)" style="fill:#e6e7e8;stroke:#e6e7e8;stroke-miterlimit:10;stroke-width:0.2750000059604645px"/><path d="M29,73.21h.87v5.25a8.84,8.84,0,0,0,0,1.16,1.83,1.83,0,0,0,.3.86,1.71,1.71,0,0,0,.72.58,2.24,2.24,0,0,0,1,.23,2,2,0,0,0,.83-.18,1.84,1.84,0,0,0,.66-.51,1.91,1.91,0,0,0,.39-.78,6.45,6.45,0,0,0,.09-1.36V73.21h.87v5.25a6.46,6.46,0,0,1-.23,1.88,2.55,2.55,0,0,1-.91,1.25,2.65,2.65,0,0,1-1.65.53,3.2,3.2,0,0,1-1.8-.5,2.42,2.42,0,0,1-1-1.33A6.88,6.88,0,0,1,29,78.46Z" transform="translate(-7.77)" style="fill:#e6e7e8;stroke:#e6e7e8;stroke-miterlimit:10;stroke-width:0.2750000059604645px"/><path d="M38.64,73.21h1.72a3.94,3.94,0,0,1,1.59.25,2,2,0,0,1,.88.75,2.12,2.12,0,0,1,.32,1.13,2.06,2.06,0,0,1-.28,1,2.16,2.16,0,0,1-.83.78,3.15,3.15,0,0,1,1,.54,2.14,2.14,0,0,1,.57.75,2.4,2.4,0,0,1-.57,2.72,2.85,2.85,0,0,1-2,.72H38.64Zm.86.85v2.79H40a4,4,0,0,0,1.34-.17,1.46,1.46,0,0,0,.67-.53,1.41,1.41,0,0,0,.25-.81,1.15,1.15,0,0,0-.42-.94,2.14,2.14,0,0,0-1.33-.34Zm0,3.66v3.33h1.07a4,4,0,0,0,1.4-.18,1.58,1.58,0,0,0,.71-.59,1.51,1.51,0,0,0-.11-1.86,1.88,1.88,0,0,0-1-.59A7.53,7.53,0,0,0,40,77.72Z" transform="translate(-7.77)" style="fill:#e6e7e8;stroke:#e6e7e8;stroke-miterlimit:10;stroke-width:0.2750000059604645px"/><path d="M51.56,80.28l.73-.44c.52,1,1.12,1.44,1.81,1.44a1.7,1.7,0,0,0,.82-.21,1.44,1.44,0,0,0,.58-.54,1.36,1.36,0,0,0,.2-.73,1.53,1.53,0,0,0-.29-.86,7.13,7.13,0,0,0-1.49-1.39,7,7,0,0,1-1.35-1.19A2.16,2.16,0,0,1,52.1,75a2,2,0,0,1,1-1.77,2.27,2.27,0,0,1,2.22,0,3.69,3.69,0,0,1,1.13,1.12l-.7.54A3.41,3.41,0,0,0,55,74.1a1.42,1.42,0,0,0-.75-.21,1.2,1.2,0,0,0-.86.32A1,1,0,0,0,53,75a1.33,1.33,0,0,0,.12.55,2.14,2.14,0,0,0,.43.58c.12.11.49.4,1.12.86a6.17,6.17,0,0,1,1.55,1.49,2.35,2.35,0,0,1,.42,1.3,2.2,2.2,0,0,1-.72,1.64,2.38,2.38,0,0,1-1.74.7,2.58,2.58,0,0,1-1.44-.42A3.77,3.77,0,0,1,51.56,80.28Z" transform="translate(-7.77)" style="fill:#e6e7e8;stroke:#e6e7e8;stroke-miterlimit:10;stroke-width:0.2750000059604645px"/><path d="M68.34,74.83l-.69.52a3.76,3.76,0,0,0-1.36-1.12,4,4,0,0,0-1.74-.38,3.88,3.88,0,0,0-1.93.5,3.53,3.53,0,0,0-1.37,1.34,3.65,3.65,0,0,0-.49,1.89,3.56,3.56,0,0,0,1.09,2.66A3.77,3.77,0,0,0,64.6,81.3a3.85,3.85,0,0,0,3.05-1.43l.69.52a4.34,4.34,0,0,1-1.62,1.28,5.11,5.11,0,0,1-2.17.45,4.48,4.48,0,0,1-4.71-4.61,4.32,4.32,0,0,1,1.34-3.21A4.62,4.62,0,0,1,64.54,73a4.77,4.77,0,0,1,2.19.49A4.23,4.23,0,0,1,68.34,74.83Z" transform="translate(-7.77)" style="fill:#e6e7e8;stroke:#e6e7e8;stroke-miterlimit:10;stroke-width:0.2750000059604645px"/><path d="M71.73,73.21h.86V81.9h-.86Z" transform="translate(-7.77)" style="fill:#e6e7e8;stroke:#e6e7e8;stroke-miterlimit:10;stroke-width:0.2750000059604645px"/><path d="M76.36,73.21h5v.85H77.23v2.73H81.3v.85H77.23v3.41H81.3v.85H76.36Z" transform="translate(-7.77)" style="fill:#e6e7e8;stroke:#e6e7e8;stroke-miterlimit:10;stroke-width:0.2750000059604645px"/><path d="M84.61,81.9V73.21h.19l5.78,6.66V73.21h.86V81.9h-.19l-5.74-6.58V81.9Z" transform="translate(-7.77)" style="fill:#e6e7e8;stroke:#e6e7e8;stroke-miterlimit:10;stroke-width:0.2750000059604645px"/><path d="M94.46,74.06v-.85h4.76v.85H97.28V81.9H96.4V74.06Z" transform="translate(-7.77)" style="fill:#e6e7e8;stroke:#e6e7e8;stroke-miterlimit:10;stroke-width:0.2750000059604645px"/><path d="M102.12,73.21H103V81.9h-.87Z" transform="translate(-7.77)" style="fill:#e6e7e8;stroke:#e6e7e8;stroke-miterlimit:10;stroke-width:0.2750000059604645px"/><path d="M106.74,73.21h4.36v.85h-3.49v2.73h3.49v.85h-3.49V81.9h-.87Z" transform="translate(-7.77)" style="fill:#e6e7e8;stroke:#e6e7e8;stroke-miterlimit:10;stroke-width:0.2750000059604645px"/><path d="M114.25,73.21h.87V81.9h-.87Z" transform="translate(-7.77)" style="fill:#e6e7e8;stroke:#e6e7e8;stroke-miterlimit:10;stroke-width:0.2750000059604645px"/><path d="M126.16,81l1.29,1.63h-1.07l-.88-1.13a4.69,4.69,0,0,1-5.66-.66,4.37,4.37,0,0,1-1.33-3.2,4.71,4.71,0,0,1,.61-2.33,4.59,4.59,0,0,1,8.17,4.13A4.76,4.76,0,0,1,126.16,81Zm-.54-.68a3.86,3.86,0,0,0,.66-4.6,3.57,3.57,0,0,0-1.36-1.34,3.66,3.66,0,0,0-1.84-.5,3.56,3.56,0,0,0-1.84.5,3.64,3.64,0,0,0-1.35,1.35,3.83,3.83,0,0,0-.48,1.9,3.56,3.56,0,0,0,1.07,2.62,3.52,3.52,0,0,0,2.58,1.07,3.62,3.62,0,0,0,1.89-.51L123,78.32h1Z" transform="translate(-7.77)" style="fill:#e6e7e8;stroke:#e6e7e8;stroke-miterlimit:10;stroke-width:0.2750000059604645px"/><path d="M131.21,73.21h.87v5.25a11.28,11.28,0,0,0,0,1.16,1.83,1.83,0,0,0,.3.86,1.74,1.74,0,0,0,.73.58,2.17,2.17,0,0,0,1,.23,2,2,0,0,0,.83-.18,1.75,1.75,0,0,0,.66-.51,1.91,1.91,0,0,0,.39-.78,6.45,6.45,0,0,0,.09-1.36V73.21H137v5.25a6.46,6.46,0,0,1-.23,1.88,2.49,2.49,0,0,1-.91,1.25,2.61,2.61,0,0,1-1.65.53,3.2,3.2,0,0,1-1.8-.5,2.42,2.42,0,0,1-1-1.33,7.34,7.34,0,0,1-.16-1.83Z" transform="translate(-7.77)" style="fill:#e6e7e8;stroke:#e6e7e8;stroke-miterlimit:10;stroke-width:0.2750000059604645px"/><path d="M140.88,73.21h5v.85h-4.11v2.73h4.08v.85h-4.08v3.41h4.08v.85h-5Z" transform="translate(-7.77)" style="fill:#e6e7e8;stroke:#e6e7e8;stroke-miterlimit:10;stroke-width:0.2750000059604645px"/><path d="M154.25,81.9V73.21h1.8a9.13,9.13,0,0,1,2.83.32,3.72,3.72,0,0,1,2,1.53,4.64,4.64,0,0,1,.72,2.61A4.56,4.56,0,0,1,161,80a3.54,3.54,0,0,1-1.46,1.46,5.48,5.48,0,0,1-2.53.47Zm.83-.82h1a9.38,9.38,0,0,0,2.5-.22,2.84,2.84,0,0,0,1.54-1.15,3.49,3.49,0,0,0,.57-2,3.78,3.78,0,0,0-.61-2.15,3.09,3.09,0,0,0-1.7-1.22,10.46,10.46,0,0,0-2.69-.25h-.61Z" transform="translate(-7.77)" style="fill:#e6e7e8;stroke:#e6e7e8;stroke-miterlimit:10;stroke-width:0.2750000059604645px"/><path d="M165,73.21h5v.85h-4.11v2.73H170v.85h-4.08v3.41H170v.85H165Z" transform="translate(-7.77)" style="fill:#e6e7e8;stroke:#e6e7e8;stroke-miterlimit:10;stroke-width:0.2750000059604645px"/><path d="M178.41,73.21h1.71a3.94,3.94,0,0,1,1.59.25,1.9,1.9,0,0,1,.88.75,2,2,0,0,1,.32,1.13,2,2,0,0,1-.28,1,2.09,2.09,0,0,1-.83.78,3,3,0,0,1,1,.54,1.92,1.92,0,0,1,.57.75,2.17,2.17,0,0,1,.21,1,2.34,2.34,0,0,1-.77,1.77,2.86,2.86,0,0,1-2,.72h-2.39Zm.85.85v2.79h.5a3.92,3.92,0,0,0,1.33-.17,1.4,1.4,0,0,0,.92-1.34,1.17,1.17,0,0,0-.41-.94,2.14,2.14,0,0,0-1.33-.34Zm0,3.66v3.33h1.08a3.94,3.94,0,0,0,1.39-.18,1.6,1.6,0,0,0,.72-.59,1.46,1.46,0,0,0,.27-.85,1.49,1.49,0,0,0-.38-1,1.88,1.88,0,0,0-1-.59,7.64,7.64,0,0,0-1.55-.11Z" transform="translate(-7.77)" style="fill:#e6e7e8;stroke:#e6e7e8;stroke-miterlimit:10;stroke-width:0.2750000059604645px"/><path d="M187,73.21h.87V81.9H187Z" transform="translate(-7.77)" style="fill:#e6e7e8;stroke:#e6e7e8;stroke-miterlimit:10;stroke-width:0.2750000059604645px"/><path d="M195.74,73a4.52,4.52,0,0,1,3.31,1.32,4.59,4.59,0,0,1-6.5,6.49,4.33,4.33,0,0,1-1.33-3.2,4.61,4.61,0,0,1,.61-2.33,4.34,4.34,0,0,1,1.65-1.67A4.48,4.48,0,0,1,195.74,73Zm0,.85a3.65,3.65,0,0,0-1.83.5,3.67,3.67,0,0,0-1.83,3.25,3.65,3.65,0,0,0,3.66,3.69,3.75,3.75,0,0,0,1.87-.49A3.5,3.5,0,0,0,199,79.44a3.74,3.74,0,0,0,.48-1.89,3.69,3.69,0,0,0-.48-1.87,3.65,3.65,0,0,0-1.36-1.34A3.73,3.73,0,0,0,195.78,73.84Z" transform="translate(-7.77)" style="fill:#e6e7e8;stroke:#e6e7e8;stroke-miterlimit:10;stroke-width:0.2750000059604645px"/><path d="M203,74.06v-.85h4.77v.85h-1.94V81.9H205V74.06Z" transform="translate(-7.77)" style="fill:#e6e7e8;stroke:#e6e7e8;stroke-miterlimit:10;stroke-width:0.2750000059604645px"/><path d="M210.81,73.21h5v.85h-4.11v2.73h4.08v.85h-4.08v3.41h4.08v.85h-4.95Z" transform="translate(-7.77)" style="fill:#e6e7e8;stroke:#e6e7e8;stroke-miterlimit:10;stroke-width:0.2750000059604645px"/><path d="M227.15,74.83l-.68.52a3.84,3.84,0,0,0-1.36-1.12,4.07,4.07,0,0,0-1.75-.38,3.91,3.91,0,0,0-1.93.5,3.53,3.53,0,0,0-1.37,1.34,3.75,3.75,0,0,0-.49,1.89,3.6,3.6,0,0,0,1.09,2.66,3.79,3.79,0,0,0,2.75,1.06,3.88,3.88,0,0,0,3.06-1.43l.68.52a4.34,4.34,0,0,1-1.62,1.28,5.11,5.11,0,0,1-2.17.45,4.5,4.5,0,0,1-3.6-1.52,4.59,4.59,0,0,1-1.1-3.09A4.28,4.28,0,0,1,220,74.3,4.59,4.59,0,0,1,223.35,73a4.84,4.84,0,0,1,2.2.49A4.2,4.2,0,0,1,227.15,74.83Z" transform="translate(-7.77)" style="fill:#e6e7e8;stroke:#e6e7e8;stroke-miterlimit:10;stroke-width:0.2750000059604645px"/><path d="M230.65,73.21h.87v3.65H236V73.21h.86V81.9H236V77.71h-4.43V81.9h-.87Z" transform="translate(-7.77)" style="fill:#e6e7e8;stroke:#e6e7e8;stroke-miterlimit:10;stroke-width:0.2750000059604645px"/><path d="M240.7,81.9V73.21h.19l5.78,6.66V73.21h.86V81.9h-.19l-5.74-6.58V81.9Z" transform="translate(-7.77)" style="fill:#e6e7e8;stroke:#e6e7e8;stroke-miterlimit:10;stroke-width:0.2750000059604645px"/><path d="M255.55,73a4.52,4.52,0,0,1,3.31,1.32,4.59,4.59,0,0,1-6.5,6.49A4.33,4.33,0,0,1,251,77.6a4.7,4.7,0,0,1,.6-2.33,4.44,4.44,0,0,1,1.66-1.67A4.48,4.48,0,0,1,255.55,73Zm0,.85a3.65,3.65,0,0,0-1.83.5,3.67,3.67,0,0,0-1.83,3.25,3.65,3.65,0,0,0,3.66,3.69,3.78,3.78,0,0,0,1.87-.49,3.57,3.57,0,0,0,1.35-1.35,3.74,3.74,0,0,0,.48-1.89,3.59,3.59,0,0,0-1.84-3.21A3.73,3.73,0,0,0,255.59,73.84Z" transform="translate(-7.77)" style="fill:#e6e7e8;stroke:#e6e7e8;stroke-miterlimit:10;stroke-width:0.2750000059604645px"/><path d="M263.7,73.21h.86v7.85h3.35v.84H263.7Z" transform="translate(-7.77)" style="fill:#e6e7e8;stroke:#e6e7e8;stroke-miterlimit:10;stroke-width:0.2750000059604645px"/><path d="M275.19,73a4.52,4.52,0,0,1,3.31,1.32A4.59,4.59,0,0,1,272,80.8a4.33,4.33,0,0,1-1.33-3.2,4.7,4.7,0,0,1,.6-2.33A4.53,4.53,0,0,1,275.19,73Zm0,.85a3.65,3.65,0,0,0-1.83.5,3.6,3.6,0,0,0-1.35,1.36,3.77,3.77,0,0,0-.48,1.89,3.65,3.65,0,0,0,3.66,3.69,3.78,3.78,0,0,0,1.87-.49,3.57,3.57,0,0,0,1.35-1.35,3.74,3.74,0,0,0,.48-1.89,3.59,3.59,0,0,0-1.84-3.21A3.76,3.76,0,0,0,275.23,73.84Z" transform="translate(-7.77)" style="fill:#e6e7e8;stroke:#e6e7e8;stroke-miterlimit:10;stroke-width:0.2750000059604645px"/><path d="M291.72,74.67l-.68.64a4.88,4.88,0,0,0-1.59-1.08,4.19,4.19,0,0,0-1.68-.37,4,4,0,0,0-1.95.5,3.61,3.61,0,0,0-1.43,1.36,3.5,3.5,0,0,0-.51,1.82,3.59,3.59,0,0,0,.52,1.86,3.76,3.76,0,0,0,1.46,1.39,4.13,4.13,0,0,0,2,.5,3.51,3.51,0,0,0,2.27-.75,3,3,0,0,0,1.1-2h-2.77v-.84h3.74a4.37,4.37,0,0,1-1.19,3.2,4.29,4.29,0,0,1-3.17,1.18,4.78,4.78,0,0,1-3.82-1.64A4.37,4.37,0,0,1,283,77.55a4.5,4.5,0,0,1,.62-2.29,4.4,4.4,0,0,1,1.7-1.67,5,5,0,0,1,2.45-.6,5.58,5.58,0,0,1,2.08.4A6.42,6.42,0,0,1,291.72,74.67Z" transform="translate(-7.77)" style="fill:#e6e7e8;stroke:#e6e7e8;stroke-miterlimit:10;stroke-width:0.2750000059604645px"/><path d="M295.53,73.21h.87V81.9h-.87Z" transform="translate(-7.77)" style="fill:#e6e7e8;stroke:#e6e7e8;stroke-miterlimit:10;stroke-width:0.2750000059604645px"/><path d="M300.16,73.21h5v.85H301v2.73h4.08v.85H301v3.41h4.08v.85h-4.95Z" transform="translate(-7.77)" style="fill:#e6e7e8;stroke:#e6e7e8;stroke-miterlimit:10;stroke-width:0.2750000059604645px"/></g></g></g></svg>