<?xml version="1.0" encoding="utf-8"?>
<!-- Generator: Adobe Illustrator 21.1.0, SVG Export Plug-In . SVG Version: 6.00 Build 0)  -->
<svg version="1.1" id="Calque_1" xmlns="http://www.w3.org/2000/svg" xmlns:xlink="http://www.w3.org/1999/xlink" x="0px" y="0px"
	 viewBox="0 0 1280 444" style="enable-background:new 0 0 1280 444;" xml:space="preserve">
<style type="text/css">
	.st0{fill:#2696AF;}
	.st1{fill:#E53539;}
</style>
<g>
	<path class="st0" d="M1184.7,207c-0.9-0.2-1.8-0.6-2.7-0.7c-6.8-0.7-13.5-0.3-20,1.8c-2.9,0.9-5.5,2.5-7.4,5
		c-1.9,2.4-3.8,4.9-5.7,7.4c-2.8,3.7-5.5,7.5-8.8,10.8c-3.7,3.6-7.8,6.8-11.9,10c-6.1,4.8-12.4,9.1-20.2,10.9
		c-6.4,1.5-12.6,3.9-18.7,6.2c-5.1,1.9-10.2,2.5-15.5,0.8c-4.4-1.4-8.8-2.8-13.3-3.8c-6.4-1.3-12.5-3.5-18.8-4.9
		c-3.4-0.8-6.8-1.8-10.1-2.7c-3.7-1-7.4-2.1-11.1-3c-2-0.5-3.9-1.5-5.8-1.8c-4.1-0.6-7.6-2.1-10.2-5.3c-2-2.5-3.4-5.4-4.2-8.3
		c-2-7.3-1.5-14.5,2.2-21.3c0.8-1.5,2.2-2.5,2.7-3.9c0.7-1.9,1.9-3.5,2.6-5.4c0.6-1.6,8-11.1,9.1-14.1c0.7-2.1,44-63.8,45.4-65.9
		c0.7-1.1,0.6-2.6,0-3.4c-0.4-0.5-1.7,0.5-2.3,1.2c-0.7,0.7-1.5,1.4-2.1,2.2c-3,4.2-5.9,8.5-8.9,12.8c-3,4.4-6,8.8-9.1,13.1
		c-3.7,5.2-7.4,10.4-11.2,15.5c-3,4-6,8-9.1,11.9c-2.1,2.7-4.3,5.3-6.4,7.9c-3.6,4.3-7.2,8.6-11.9,11.7c-4.4,2.9-9.6,3.5-14.7,3.9
		c-4.9,0.3-7.9-2.3-9.4-7c-1.4-4.6-1.6-9.4-2-14.1c-0.8-9.4,2.1-43.6,2.3-46.2c0.4-5.4,1.6-10.4,6.4-13.6c9.4-6.3,18.7-12.6,28-19.1
		c4.5-3.2,9.1-6.2,13.6-9.4c2.1-1.5,4.4-2.6,6.2-4.5c-0.8-0.3-1.4,0.1-2,0.3c-7,2.7-13.6,6.1-20.4,9.2c-1.2,0.6-1.8,0.5-2.5-0.6
		c-1.8-3.1-4-5.9-6.5-8.4c-0.9-0.9-2.3-1.4-3.2-0.8c-0.9,0.5,0.7,1.2,0.8,1.9c0.1,0.5,0.2,1,0.5,1.4c2.9,3.6,2.3,7.5,0.5,11
		c-2.2,4.3-6.1,7.2-10.1,9.8c-2.8,1.8-5.7,3.3-8.9,4.3c-2.5,0.7-4,1-5.8-0.9c-1.8-1.8-2.9-3.9-4-6.1c-3.1-6.5-4.4-13.6-6.5-20.4
		c-1.7-5.4-2.9-11-4.9-16.3c-1.1-2.8-2.8-5.2-4.2-7.8c-0.6-1.2-1-2.4-2.6-2.9c0.6,1.1,0.4,2.2,0.7,3.3c1.9,8.1,4.6,16,7.4,23.9
		c2,5.7,3.6,11.4,5.3,17.2c1.3,4.3,2.6,8.6,2.8,12.9c0.4,8.6-0.1,17.2-1,25.7c-0.3,2.9-0.3,5.8-1,8.7c-0.5,2.3-0.9,4.7-1.2,7.1
		c-0.2,1.7-0.4,3.5-0.4,5.2c0,2.2-0.4,4.4-0.5,6.6c0,1.3-0.1,2.6-0.3,3.9c-0.4,2.3-0.9,4.6-1.1,6.9c-0.2,3-0.9,6-1.3,9
		c-0.5,4.8-3.4,8.5-6.9,11.6c-3.2,2.8-6.6,4.1-10.9,2.3c-4.6-1.9-9.3-3.5-13.4-6.6c-2-1.5-3.7-2.9-4.8-5.1c-0.9-1.6-2.2-3-3.6-4.1
		c-4.4-3.3-9-6.4-13.8-9.2c-3-1.8-6-3.6-9-5.3c-2.5-1.4-5.4-2.6-7.7-4.3c-4-2.9-7.5-6.3-11.4-9.3c-3.3-2.6-5.8-6.2-10.2-7.5
		c-0.2,1.1,0.4,1.7,1,2.4c3,3.3,6,6.6,9.2,9.7c3.5,3.3,7,6.3,11.3,8.5c7.6,3.9,14.9,8.2,21.6,13.5c4.7,3.8,9.4,7.5,11.7,13.5
		c1.4,3.6,2.3,7,1.7,10.9c-0.9,4.9-3.3,8-8.1,9.4c-3.1,0.9-45.4-1-47.8-2.1c-0.7-0.3-1.2-0.2-1.1,0.8c0.1,1.7,0.8,3.2,1,4.8
		c0.2,1.9,1.2,2.3,2.9,2.3c5,0.1,9.9,0.1,14.9,0.5c3.4,0.3,6.8,0.5,10.2,0.6c2.6,0.1,5.3,0.3,7.8,0.9c3,0.7,5.5,2.5,8,4.2
		c5.7,4,8.7,9.6,9,16.4c0.3,6.9-2.6,12.7-8,16.9c-3,2.4-6.4,4.3-10.5,2.9c-0.7-0.2-1.4-0.7-2.1-0.7c-4.2,0.1-7.9-1.7-11.5-3.5
		c-3.7-1.9-6.4-4.9-9.2-7.9c-1.1-1.2-2.4-2.5-4.3-3.2c0.1,2,1.5,2.9,2.4,4.2c1.8,2.8,4.1,5.1,7.2,6.7c3.5,1.8,7,3.6,9.6,6.6
		c1.1,1.2,1.6,2.6,1.4,4c-0.5,2.9-2.2,5.3-3.8,7.8c-2.7,4.2-6.5,7-10.8,9.5c-5.7,3.3-11.2,7-15.6,12c-1.7,1.9-3.2,4-3.7,6.6
		c-0.1,0.4-0.6,0.9,0.1,1.3c0.6,0.3,0.9-0.1,1.3-0.5c2.3-2.3,4.5-4.5,6.8-6.8c2.7-2.6,5.5-4.9,9.1-6.2c2.5-0.9,4.7-2.4,6.6-4.2
		c2-1.9,4-3.7,5.9-5.6c0.5-0.5,1.1-0.7,1.7-0.4c0.7,0.3,0.2,0.9,0.2,1.3c0.1,1.6,0.4,3.2,0.5,4.8c0.3,4.1,0.9,8.2,0.8,12.4
		c-0.4,16.3,0.5,32.7,0.6,49c0,0.3-0.1,0.6,0.6,0.8c1.3-2,0.9-4.5,1.2-6.7c0.9-7,0.9-14.1,1.1-21.2c0.3-11.1,0-22.2-0.5-33.2
		c-0.1-3.8,0.2-7.5,1-11.2c0.5-2.2,1.2-4.4,2.3-6.4c1.1-1.9,2.4-2,3.8-0.2c0.3,0.4,0.5,0.9,0.8,1.3c2.1,3.3,3.6,7,5.3,10.5
		c2.3,4.9,4.6,9.8,6.9,14.6c1.1,2.2,1.8,4.7,3.9,6c5.4,3.4,11.3,6,17.3,8.2c0.9,0.3,1.8,0.3,2.7,0.1c-0.3-0.9-1-1.2-1.6-1.5
		c-2.8-1.6-5.6-3.1-8.4-4.8c-4.5-2.6-8.5-5.6-11-10.4c-2.5-4.8-4.9-9.6-7-14.5c-1.2-2.9-2.4-5.9-3.1-9c-0.3-1.4-0.6-2.8,0.4-4.2
		c1.2-1.5,2.2-3.1,3.3-4.6c3.5-4.9,8.1-7.3,14.2-6.4c6.9,1,13.3,3.3,18.8,7.5c2.1,1.6,3.7,3.6,4.4,6.2c1,3.8,2.1,7.6,3,11.4
		c1.6,6.4,3.2,12.8,3.8,19.4c0.2,2.3-0.2,4.3-1.7,6c-2.3,2.8-4.5,5.8-6.9,8.6c-4.3,5.1-8.8,10.1-13.2,15.1c-1.7,1.9-3.2,4.2-5.1,5.8
		c-3.4,2.8-7.5,4.8-11.2,7.1c-3.5,2.2-7.2,4.3-10.1,7.5c0.8,0.6,1.3,0.3,2,0c4.5-2,8.8-4.2,13.1-6.6c6.5-3.6,12.7-7.6,17-13.9
		c3-4.3,6.3-8.4,9.6-12.6c1.4-1.7,2.6-3.6,4.6-4.7c0.7-0.4,2-0.8,1.9,0.2c-0.1,1.3,0.4,2.4,0.5,3.5c0.2,3.9-0.1,7.8-0.1,11.8
		c0,1.3-0.9,2.1-0.8,3.4c0.2,2.6,0.2,5.3,0,7.9c-0.2,3.1,0,6.4,0,9.5c0,1.1,0.1,2.4,0.7,3.6c3.5,6.8,7.8,13.1,11.4,19.7
		c1.6,2.9,3.4,5.8,4.1,9.1c0.3,1.3,0.5,2.9,1.9,3.9c0.3-1.5,0.4-3.3,0.2-4.2c-1.7-7.5-4.9-14.4-8.4-21.3c-1.4-2.7-3.3-5.1-4-8.1
		c-1-4.6,0.2-9.1,0.6-13.6c0.1-1.3,0-2.8,0.6-4.3c0.4-0.8,0.8-2.4,0.6-3.5c-0.3-1.4,0.1-2.7,0.3-4c0.5-3,1.4-6.1,1.5-9
		c0.1-3.3,0.7-6.4,1-9.6c0.4-4.9-0.3-9.7-0.6-14.4c-0.2-1.8-0.6-3.8-0.8-5.7c-0.2-3.6-0.4-7.2,0.4-10.9c0.5-2.5,1.3-3.9,3.5-4.9
		c2.7-1.2,5.4-2,8.3-2.7c3.1-0.7,5.9-0.4,8.8,0.6c4,1.3,5,4.8,6.2,8.1c1.7,4.6,2.8,9.4,5,13.8c2.2,4.3,4.6,8.5,6.7,12.8
		c1.5,2.9,3,6,3.1,9.3c0.4,8.4,0.6,16.8,0.1,25.3c-0.1,1.5-0.1,3.1,0.2,4.6c0.4,2.3,0.8,4.5,1.4,6.7c0.6,2.3,1,4.8,2.5,6.9
		c0.3-2.6,0.1-5.2,0.3-7.8c0.3-3.8,0.3-7.5,0.7-11.3c0.3-2.7,0.5-5.6,0.5-8.4c0-2.8,1-5.3,1-8.1c0-4.5,3.3-7.7,7.1-6.7
		c5.2,1.3,10.4,2.7,15.7,4c4.3,1.1,8.6,1.8,13,1.1c4.2-0.6,8.4-1.7,12.5-2.8c5.1-1.3,10.1-2.7,15.1-4.1c2.7-0.8,5.5-1.4,8.4-3.3
		c-5.2-0.1-9.7,1.3-14.3,2c-3.1,0.5-6.3,1.1-9.4,1.9c-2.9,0.7-6,0.5-8.8,1.2c-2.4,0.6-4.8,1-7.2,1.1c-4,0-7.8-1-11.7-1.6
		c-1.1-0.2-2.3-0.4-3.3-0.5c-4.5-0.3-8.5-1.6-11.7-4.7c-3.9-3.7-7.3-7.8-10.6-12c-3.1-3.9-5.7-7.9-7.2-12.7
		c-0.8-2.4-1.5-4.8-2.2-7.2c-1-3.2-2.2-6.2-2.5-9.6c-0.1-1.2,0-2.6-0.5-3.9c-1.1-2.7,0-5.7,2.2-7.5c2.6-2,5.7-2.7,8.6-3.4
		c4.9-1.1,9.8-1.9,14.9-1.3c3.8,0.4,7.7,0.2,11.6,0.8c4.1,0.6,8.3,1,12.3,2.3c3.9,1.3,7.9,2.5,11.8,3.8c6.9,2.3,13.6,4.8,19.2,9.6
		c1.5,1.3,3.3,2.4,5.1,3.4c4.4,2.4,9.1,4.3,13.8,6.2c3.9,1.6,8,3,12.1,3.7c6.9,1.1,13.6,2.7,20.4,4.1c4.4,0.9,8.8,1.9,13.3,2.7
		c4.6,0.8,9.2,1.5,13.8,1.9c4.8,0.5,9.6,1.7,14.5,1.5c3-0.1,5.9,0.2,8.9,0c0.7-0.1,1.4-0.2,1.3-1c-0.1-0.8-0.8-0.8-1.4-0.9
		c-0.8,0-1.6-0.1-2.4-0.1c-5.6-0.4-11.4,0.3-16.9-1.5c-1.7,1.3-3.5,0-5.1-0.2c-6.5-0.7-13-2.1-19.3-4c-6.6-2-13.2-4.3-20-5.8
		c-6.2-1.3-12.5-2.3-18.5-4.7c-4.2-1.7-8.6-3.1-11.8-6.5c-2.7-2.8-1.8-4.1,0.8-5.4c6.3-3.1,13.1-4.9,19.6-7.6c4-1.6,8.1-2.7,12-4.7
		c4.7-2.4,8.8-5.7,13.1-8.7c2.8-1.9,5.4-4,7.4-6.8c4.3-6.1,8.6-12.3,12.9-18.4c2.4-3.4,5.1-6.4,9.2-7.7c4.6-1.5,9.4-2.4,14.3-2.3
		c2.2,0.1,4.4-0.2,6.5-0.4c0.6-0.1,1-0.5,1.1-0.9C1185.7,207.1,1185.1,207,1184.7,207z M986.2,243.7c0,0.3-0.1,0.5-0.2,0.8
		c0,0.3-0.1,0.5-0.2,0.7c-0.1,0.2-0.1,0.4-0.2,0.6c0,0.1-0.1,0.2-0.1,0.3c0,0.1-0.1,0.2-0.1,0.3c-0.4,0.9-1,1.8-1.6,2.5
		c-0.1,0.2-0.3,0.3-0.5,0.5c-1.1,1.1-2.6,2-4.2,2.6c-3.5,1.4-7.3,1.9-11,2.6c-0.5,0.1-1,0.2-1.5,0.3c-0.2,0-0.3,0.1-0.5,0.1
		c-0.6,0.1-1.3,0.3-1.9,0.5c-2.6,1-4.9,0.3-7-1.2c-4.9-3.7-8-8.7-10.5-14.2c-0.9-2-1.5-4.1-2.1-6.3c-1.1-4.1,0.2-7.3,3.1-10.1
		c2.8-2.7,6.3-4.4,9.8-6c3.4-1.6,6.7-2,10.3-1c3.2,0.9,6.5,1.6,9.5,3.2c6.6,3.5,9.8,8.8,9.8,16.3
		C987.1,238.6,986.6,241.1,986.2,243.7z"/>
	<path class="st1" d="M502.2,101.4c0,0.4,0,0.8,0,1.1c-0.2,3.1-0.2,3.1,2.8,4.5c2,1,4.1,1.9,6.1,2.9c1.3,0.7,2.2,0.7,2.7-0.9
		c0.3-0.9,0.9-1.6,1.3-2.5c1-2.1,1.3-2.2,3.4-1.3c5.5,2.5,10.4,5.8,15.3,9.2c4.2,2.9,8.1,6.2,11.6,9.9c0.7,0.8,1.4,1.6,2,2.5
		c1.4,1.8,1.4,3.6-0.1,5.3c-0.8,0.9-0.6,1.5,0.4,2c1.5,0.8,3,1.6,4.5,2.4c0.9,0.5,1.6,0.5,2.1-0.6c0.7-1.5,1.7-2.9,2.5-4.3
		c1-1.7,2.5-1.5,4-0.9c4.7,1.8,8.9,4.3,13.2,6.8c1.7,1,3.4,2.2,5.1,3.1c3.1,1.7,4,5.6,2.1,8.6c-2.4,3.7-4.8,7.5-7.7,11
		c-1.9,2.3-3.3,2.6-6,1.1c-3.4-2-6.9-3.8-10-6.2c-1.3-1-2.6-1.8-4.1-2.5c-2.2-1.1-3.7-4.8-3-7.7c0.3-1-0.2-1.8-0.9-2.3
		c-1.8-1.2-3.8-2.3-5.6-3.5c-1.4-0.9-2.5-0.8-3.9,0.3c-2.5,2-5.2,3.4-8.4,1.6c-3.6-2.1-7.3-4.2-10.7-6.6c-3.1-2.3-6.5-4.2-9.8-6.3
		c-2-1.3-3-4.5-2.2-6.7c0.3-0.8,0.5-1.7,0.8-2.5c1-3,1-3-1.9-3.9c-2.7-0.8-5.4-1.9-8.2-2.5c-0.9-0.2-1.3-0.2-1.9,0.5
		c-1.9,2.2-4.2,3.2-7.3,3c-4.3-0.3-8.6,0.1-12.9,0c-3.5-0.1-7-0.7-10.3-2.2c-2.4-1.1-3.1-3.2-3.8-5.3c-0.5-1.6-0.8-3.2-1.2-4.8
		c-0.3-0.9-0.8-1.6-2.1-1.5c-2.4,0.2-4.8,0.1-7.2,0c-1,0-1.6,0.2-1.5,1.4c0.3,2.6-1,4.3-3,5.9c-4.5,3.5-9.5,5.7-15.1,6.5
		c-3.4,0.5-5.6-1.4-7.2-4.2c-0.3-0.5-0.6-0.9-0.9-1.4c-0.4-0.8-0.9-1.1-1.7-0.4c-1.6,1.3-3.2,2.5-4.9,3.8c-0.8,0.6-0.7,1.2,0,1.9
		c1.2,1.1,2.1,2.3,3.1,3.6c0.8,1.1,0.8,1.9-0.3,2.9c-3.7,3.6-7.9,6.6-12,9.8c-2.1,1.6-4.1,3.4-6.4,4.8c-1.3,0.8-2.4,0.5-3.5,0
		c-0.4-0.2-0.7-0.5-1.1-0.7c-3.5-2.3-3.6-2.3-6.7,0.5c-1,0.9-2.9,1.4-2.8,2.8c0.1,1.2,2.1,1.4,3.1,2.2c4.8,3.5,5.3,2.2,2.1,8.3
		c-3.1,6-6.9,11.7-11.6,16.7c-1.4,1.5-2.9,1.9-4.8,1.2c-5.6-1.9-10.7-4.5-15.5-7.9c-1.3-1-1.9-2-1.2-3.8c1.8-4.3,4.3-8.1,6.8-12
		c2.3-3.5,4.7-6.9,7-10.3c1.6-2.4,2.5-2.5,4.9-0.9c0.6,0.4,1.4,0.7,1.8,1.3c1.4,1.9,2.8,1.3,4,0.1c1.3-1.3,2.8-2.4,4.1-3.6
		c0.7-0.7,0.9-1.1-0.1-1.7c-0.6-0.3-1.1-0.8-1.6-1.3c-3.5-3.6-3.2-3.4,0.2-6.7c5.5-5.3,11.6-10,17.6-14.8c1.1-0.9,2.1-0.7,3.1,0
		c1,0.8,1.8,1.7,2.8,2.6c0.3,0.3,0.6,0.9,1.2,0.3c2.1-1.8,4.7-2.7,7.1-3.8c0.9-0.4,1.4-0.7,0.8-1.8c-0.8-1.2-1.7-3.1-1.2-3.9
		c0.9-1.5,1.8-3.2,3.4-4.3c3.9-2.7,8.1-4.7,12.5-6.4c2.6-1,5.2-1.8,7.9-2.3c3.1-0.6,5.1,0.8,5.8,3.8c0.3,1.5,0.8,2.9,1,4.4
		c0.2,1.2,0.7,1.6,1.9,1.6c2.3,0,4.7,0.1,7,0.2c0.9,0,1.5-0.1,1.7-1.2c0.2-1.1,0.9-2.1,1.5-3c1.2-1.9,2.8-2.9,5.1-2.8
		c5.9,0.1,11.9,0.3,17.8,0.9c3.9,0.4,7.9,0.9,11.8,1.6c2.3,0.4,3.5,1.6,4.1,3.7C501.7,97.7,502.3,99.5,502.2,101.4z"/>
	<path class="st1" d="M103,173.1c3.1,0.1,6.2,0.7,9.2,0.7c3.2,0,5.7,1.3,8.3,2.6c4.1,2,5.5,6,6.5,10c0.6,2.5,1.2,5,1.5,7.5
		c0.7,4.7,3.8,7.5,7.1,10.3c1.3,1.1,2.9,2,4.3,3c1.2,0.8,1.8,0.7,1.9-0.9c0.3-3.8-0.6-7.4-2.3-10.8c-1.8-3.5-2.9-7.2-3.7-11.1
		c-0.7-3.6-0.9-7.2-2.2-10.7c-0.7-1.8-0.8-4-0.2-6c0.4-1.4,1.4-2.5,3.1-2.6c1.7-0.1,3.3,0.1,4.5,1.4c0.5,0.5,0.4,1.3,0,2
		c-3.1,5.5-1.4,11.2-0.8,16.8c0.3,2.7,2.2,5,3.4,7.5c1.3,2.6,2.9,5.2,2.5,8.4c-0.7,6.4,1,12.1,4,17.7c2.8,5.1,5.1,10.5,7.5,15.8
		c2.9,6.4,7.3,11.7,11.6,17.2c5.3,6.7,12,12.2,17.9,18.3c2.4,2.5,4.9,4.9,7.3,7.3c3.7,3.6,7.5,7.2,11.2,10.9c1.6,1.5,3.7,1.6,5.6,2
		c3.4,0.7,6.7,1.4,10.2,1.8c0.8,0.1,1-0.1,1.3-0.6c1.4-2.7,3-5.3,4.5-7.9c0.9-1.6,2-2.1,3.6-1.8c6.9,1.1,13.6,3.3,20.4,4.9
		c4.2,1,6.4,2.9,6.6,7.3c0,1.1,0.7,1.8,2,1.4c1.5-0.5,3-0.9,4.5-1.3c0.9-0.2,1.3-0.8,1-1.5c-0.7-1.3-0.6-2.7-1-4
		c-0.6-1.7,0.8-2.7,1.9-3.6c2.2-1.7,4.5-3.3,6.8-4.7c4.6-2.8,9.3-5.4,14.1-7.8c1.7-0.8,3.1-0.5,4.4,0.4c4.7,3.2,8.2,7.6,11.1,12.4
		c0.9,1.5,0.5,2.5-0.6,3.6c-3.3,3.3-7.3,5.6-11.3,8.1c-5.1,3.1-10.4,5.9-15.6,8.8c-1.4,0.8-2.5,0.5-3.4-0.6c-0.7-0.8-1.7-1.7-2-2.7
		c-0.5-2-1.9-2.2-3.4-1.9c-2,0.5-4,0.2-6,0.4c-1.2,0.1-1.5,0.5-1.4,1.6c0.1,1.1,0.1,2.3,0.2,3.4c0,1.9-1,2.8-2.8,3.2
		c-2.2,0.4-4.4-0.1-6.5-0.4c-3-0.4-6-0.6-8.9-1.4c-3.4-0.9-6.9-1.5-10.4-2.1c-3.1-0.6-6.1-1.7-9.2-2.5c-1-0.3-1.8-0.7-1.9-2
		c-0.1-3.1-0.1-3.1-3-3.6c-5.3-0.9-10.5-2.1-15.6-3.8c-3.3-1.1-6.3,0-8.9,1.9c-2.5,1.8-4.9,3.7-7.3,5.6c-2.9,2.3-4.5,5.4-5.2,9
		c-1,4.8-3.4,8.9-6.7,12.5c-1.9,2.1-3.9,4.2-6.2,5.8c-0.9,0.7-2,1.1-3.1,1.3c-1.2,0.2-2.5,0.2-3.2-1c-0.7-1.3-1.4-2.4-0.2-4
		c1.8-2.4,4.2-4.1,6.7-5.6c4-2.5,6.4-6.1,8.7-10c2.1-3.5,4.1-7.1,6.4-10.5c1.5-2.2,4-3.4,6.3-4.7c2.2-1.3,4.4-2.5,6.6-3.9
		c1.8-1.1,2.1-2.7,0.9-4.4c-3-4.3-6.7-8-10.6-11.4c-0.9-0.7-1.9-1.4-2.4-2.4c-1.7-2.7-4.1-2.7-6.5-1.7c-5.3,2.1-10.5,4.4-15.7,6.6
		c-2.2,1-2.3,3.1-2.6,5.1c-0.2,1.3-0.2,2.6-0.4,3.9c-0.3,2-1.4,3.6-3.1,4c-1.8,0.4-3.1-0.4-4.2-1.8c-1.2-1.5-0.7-3,0-4.2
		c2-3.5,5-6.3,7.9-9.1c3.3-3.2,7.3-5,11.5-6.4c0.8-0.3,1.8-0.8,1.8-1.6c0-0.8-1-0.9-1.7-1.2c-3.8-1.6-7.9-2.1-11.8-3.1
		c-4.1-1.1-6.5,1.2-9.2,3.3c-1.7,1.4-3.4,2.7-5.1,4.2c-2.1,1.9-4.9,1.6-7.6,1.7c-0.5,0-1.3-0.3-1.3-1.1c-0.1-0.9,0.5-1.4,1.2-1.8
		c2.3-1.2,4.7-2.3,6.9-3.8c2.7-1.8,5.1-3.9,7-6.4c0.9-1.2,1-2.5-0.1-3.9c-1.6-2-3.6-3.7-5.5-5.4c-3.5-2.9-7.3-5.2-11.7-6.4
		c-1.3-0.4-2.7,0.3-4.1-0.4c-1.1-0.5-1.8-1-1.8-2.3c0.1-1.3,0.5-2.2,1.9-2.3c4.7-0.5,9.3-0.4,13,3.2c2.3,2.2,4.7,4.3,6.7,6.7
		c5.2,6.2,12,9.9,19.2,13c1.5,0.6,3,1.2,4.6,1.8c0.3,0.1,0.9,0.4,1.2-0.2c0.2-0.5-0.2-0.7-0.6-1c-1.7-1.2-3.5-2.4-5.1-3.7
		c-4.6-3.9-8.2-8.7-11.4-13.8c-3.2-5.2-6.2-10.4-8.6-16.1c-1.4-3.3-2.9-6.6-3.9-10.1c-0.3-1.2-1.1-2.1-2.5-2.8
		c-6.2-3-11.4-7.4-14.9-13.4c-2.6-4.3-4.6-8.8-5-14c-0.2-3.2-2.6-5.4-5.3-7.3c-3.6-2.5-7-1.3-10.5-0.2c-2.4,0.8-4.9,1.2-7.4,1.8
		c-1.5,0.4-3-0.1-4-1.5c-0.8-1.3-0.2-2.6,0.4-3.7c1.1-2.3,2.8-3.7,5.6-3.2C101.5,173.2,102.3,173.1,103,173.1z"/>
	<path class="st0" d="M510.2,190.3c-4.1,4.9-7.9,9.4-11.5,13.9c-2.1,2.6-4.1,5.2-6.2,7.7c-2.2,2.6-4.5,5.2-6.7,7.9
		c-3.5,4.2-6.9,8.5-10.4,12.7c-3.4,4-6.8,8.1-10.2,12.1c-1.2,1.3-2.2,2.7-3.4,4.1c-2.4,2.8-5.1,5.7-8.7,6.7
		c-2.6,0.7-6.5-0.4-7.7-3.6c-0.6-1.6-5.1-30.9-5.6-35.3c0-1-1.4-1.5-1.8-0.6c-2.4,3-29.7,37.3-31.6,39.7c-0.5,0-13.4,0-19.3,0
		c1.8-2.4,46.7-57,49.9-60.4c10.9-10.9,15.2-5.7,16.3-1.6c0.6,2.3,5.3,34.4,5.5,35.4c0.1,0.4,0.3,0.9,0.6,1.1c0.5,0.3,0.8-0.3,1-0.6
		c4.8-5.7,9.6-11.4,14.4-17.2c2.9-3.5,5.8-7,8.7-10.4c3-3.6,6-7.1,9.1-10.6c0.4-0.4,0.7-1,1.5-1
		C499.1,190.3,504.4,190.3,510.2,190.3z"/>
	<path class="st0" d="M296.7,255.5L296.7,255.5l-6.2,0C292.6,255.5,294.6,255.5,296.7,255.5z"/>
	<path class="st0" d="M326.7,199.9c-0.1,0-0.2,0-0.3,0c-0.4,0-0.7,0-1.1,0H326.7z"/>
	<path class="st0" d="M671.7,247.1c-3.9,4.3-9.3,6.7-15,8.2c-3.2,0.8-6.5,1-9.6,1v0h-30.8v-12.1h30.8v0c4.3-0.1,8.3-1,12-3.4
		c3.9-2.6,4-8.6,0.5-11.2c-3-2.2-6.1-3.2-9.6-3.7c-4-0.6-7.9-0.2-11.9-0.3c-5.9-0.2-11.6-1.6-16.3-5.3c-3-2.3-5.4-5.3-6.5-9.1
		c-1.5-5.2-0.4-9.9,3-14.1c2.8-3.6,6.6-5.5,10.8-7.1c3.5-1.3,7.1-1.7,10.7-1.8c0.5,0,0.9,0,1.4,0c3.7-0.1,7.5-0.1,11.2-0.1h18.2
		v12.1h-30c-3,0.2-5.8,0.8-8.2,3c-2.4,2.2-1.9,7.2,1.3,9.2c1.9,1.2,3.9,1.9,6.2,2c4.5,0.1,9-0.1,13.5,0.3c9.9,0.8,19.2,6,22,15.2
		C677.1,236.1,676,242.2,671.7,247.1z"/>
	<path class="st0" d="M606.2,199.2c-5.2-7.6-13-10.9-21.6-11.7c-11-1-22-0.2-33-0.4c-1.7,0-1.9,0.5-1.9,2c0,5.8,0.1,20.9,0.1,35.3
		c0,12.2,0,23.9-0.1,28.9v0.1c0,1.4,0.4,1.9,1.9,1.9c3.8-0.1,7.6-0.1,11.4,0c1.3,0,1.7-0.3,1.7-1.7c-0.1-5,0-10,0-15
		c0-1.7-0.1-2.3,0.3-2.5c0.3-0.2,1-0.1,2.3-0.1c7-0.3,14.1,0.8,21.1-0.9c6-1.4,11.4-3.9,15.8-8.6C611.1,219,611.9,207.5,606.2,199.2
		z M590.4,220.6c-3.3,2.3-7,3.3-10.9,3.4c-4.5,0.1-9,0-13.5,0.1c-1.3,0-1.4-0.5-1.4-1.6c0-3.7,0-7.3,0-11v-11.2c0-0.7-0.1-1.4,1-1.4
		c5.9,0.2,11.8-0.5,17.6,0.5c3.8,0.6,7.2,2.1,9.6,5.2C597.2,209.9,596.1,216.7,590.4,220.6z"/>
	<path class="st1" d="M802.6,234.9c1.8,0,5,0.1,6.7,0.1c0,0.6,0,0,0,1.7c0,3,1.7,5.9,3.9,8.1c0.5,0.4,1,0.8,1.5,1.2
		c3.6,2.5,12.3,2.8,17.2-0.9c2.9-2.2,3.7-5.2,3-8.7c-0.5-2.7-2.4-4.2-4.8-4.9c-4.2-1.3-8.6-2.3-12.8-3.6c-3.9-1.2-7.9-2.2-11.4-4.3
		c-4.5-2.6-7.6-6.3-8.6-11.8c-1-5.2,0.3-9.9,2.8-14.3c2.5-4.3,6.7-6.8,11.3-8.3c3.1-1,6.4-1.5,9.7-1.7c4.6-0.4,9,0.1,13.3,1.3
		c7,2,13,7.2,13.8,15.8c0.1,1.1,0.3,2.4,0.2,3.4c-0.9,0-2.2,0-3.4,0c-3,0-7.6-0.1-10.5,0c-0.1-0.4-0.1-0.4-0.3-1.6
		c-0.4-2.9-1.5-5.4-4-7c-4.4-2.7-11-2.5-15,0.9c-4.6,4-3.6,10.9,2,13.4c4.3,1.9,9,2.6,13.4,3.8c5,1.4,9.9,2.8,14.1,6
		c4.6,3.6,6,8.5,5.7,14.1c-0.2,3.8-1.8,7.2-3.4,10.4c-4,6.3-11.6,8.5-18.7,9.6c-5.9,0.8-11.9,0.8-17.8-0.7
		c-10.5-2.7-13.7-8.9-15.3-16.4c-0.3-1.3-0.3-5.5-0.2-5.8C797,234.9,800.6,234.9,802.6,234.9z"/>
	<path class="st0" d="M540.3,224.4c0-12.8,0-25.7,0-30.8c0-2.4-0.6-4.4-2.6-6c-1.5-1.2-7.4-3-13.5,3c-5.6,5.6-37.4,43.1-42.5,49.4
		c-3.7,4.6-12.7,14.6-13,15.4c0.9,0,13.3-0.1,18.1,0c0.8-0.8,10.8-12.9,15.4-18.6c0.7-0.9,1.5-1.2,2.5-1.2c6.2,0,12.3,0.1,18.4,0
		c1.2,0,1.7,0.2,1.9,1c0,0.2,0.1,0.5,0.1,0.8c-0.1,5.4,0,10.8-0.1,16.2c0,1.2,0.3,1.7,1.6,1.6c3.9-0.1,7.9-0.1,11.8,0
		c1.5,0,1.9-0.4,1.9-1.9v0C540.4,248.6,540.3,236.6,540.3,224.4z M523.8,224.4c-3.2,0-6.4,0-9.7,0c-0.8,0-1.3-0.2-0.6-1
		c3.7-4.5,7.5-9,11.6-14c0,5,0,9.4,0,13.9C525.1,224.3,524.6,224.4,523.8,224.4z"/>
	<path class="st1" d="M734.5,245.4v11.3c-0.2,0-31.2,0-45.7,0.1c0-0.5,0-23.3,0-34.2c0-10.8,0-33.7,0-34.1c14,0.1,44,0,44.1,0v11.2
		c-0.1,0-20.5,0-29.6-0.1c0,0.4,0,15.8,0.1,16.2c8.5,0,27.8,0,28,0V227c-0.2,0.1-19.7,0.1-28.1,0c0,0.4,0,18,0.1,18.4
		C712.7,245.3,734.2,245.3,734.5,245.4z"/>
	<path class="st0" d="M404.5,211.6c-1.3,8.9-5.6,15.8-13.8,20.1c-3.3,1.8-6.8,3-10.5,3.3c-1.3,0.1-1.6,0.6-1.7,1.4
		c0,0.2,0,0.5,0,0.8c0,4.2,0,8.4,0,12.6v5.8h-14.7v-15.7c0-0.8,0-1.6,0-2.5c0-0.3,0-0.5,0-0.7c-0.2-1.1-0.8-1.6-1.9-1.7
		c-5.6-0.7-10.7-2.8-15.2-6.1c-2-1.5-3.6-3.5-4.8-5.7c-2.6-4.4-4.2-9.2-4.4-14.4c-0.2-4.7,0.1-9.5,0.1-14.2c0-1.7,0.1-5.2,0-6.8
		c1.4,0,14.2,0,14.8,0c-0.1,5.3,0,12.3,0,17.6c0,3.4,0.3,6.8,1.4,10.1c1.4,4.5,4.9,6.8,9,7.7c5.8,1.3,11.8,1.4,17.6-0.1
		c5.3-1.3,8.6-6.1,9.4-11.5c0.6-4.2,0.5-8.4,0.7-11.9c0-3.9,0-8.6,0-11.9c0.5,0,14.5,0,14.7,0.1
		C404.8,195.4,405.5,204.1,404.5,211.6z"/>
	<path class="st0" d="M363.6,253.1c0-4.4,0-8.9,0-13.3v13.8C363.6,253.5,363.6,253.3,363.6,253.1z"/>
	<path class="st0" d="M378.4,252.9c0,0.2,0,0.4,0,0.6v-3.8C378.4,250.8,378.4,251.9,378.4,252.9z"/>
	<path class="st1" d="M794.9,188.5v11.3c-0.2,0-13.8,0-19.4-0.1c0,0.9,0.1,19.6,0.1,28.6c0,8.9,0,19.6,0.1,28.4c-0.8,0-14,0-14.7,0
		c0-17.6,0.1-56.3,0.1-57c-5.5,0.1-19.3,0.1-19.6,0v-11.1C741.7,188.5,794.8,188.5,794.9,188.5z"/>
	<path class="st1" d="M724.4,170.1c-0.3,0.6-12.9,13.3-13.4,13.7c-2.1,0-4.8,0-7.1,0c0.9-1.5,7.9-13.4,8.2-13.7
		C715.9,170.1,720.4,170.1,724.4,170.1z"/>
	<path class="st0" d="M363.7,236.7c0,0.2,0,0.4,0,0.7c0,0.8,0,1.7,0,2.5V236.7z"/>
	<path class="st0" d="M378.4,236.4v13.4c0-4.2,0-8.4,0-12.6C378.4,236.9,378.4,236.6,378.4,236.4z"/>
	<path class="st0" d="M540.4,224.4v29.1C540.4,248.6,540.4,236.6,540.4,224.4L540.4,224.4z"/>
	<path class="st0" d="M540.4,253.6v2h-15.3v-18.8c0.1,0.2,0.1,0.5,0.1,0.8c-0.1,5.4,0,10.8,0,16.1c0,1.2,0.3,1.7,1.6,1.6
		c3.9-0.1,7.9-0.1,11.8,0C539.9,255.4,540.4,255,540.4,253.6z"/>
	<path class="st0" d="M549.7,224.4c0,12.2,0,23.9,0,28.9L549.7,224.4L549.7,224.4z"/>
	<path class="st0" d="M565,236.1v19.5h-15.3v-2.2c0,1.5,0.4,1.9,1.9,1.9c3.8-0.1,7.6-0.1,11.4,0c1.3,0,1.7-0.3,1.7-1.7
		c-0.1-5,0-10,0-15C564.6,236.8,564.5,236.3,565,236.1z"/>
	<path class="st0" d="M296.7,243.6L296.7,243.6c-0.6,0-1.2,0-1.8,0H296.7z"/>
	<path class="st0" d="M296.7,255.5L296.7,255.5l-20.8,0c2.8,0,5.6,0,8.4,0c1.5,0,3,0,4.5,0h1.7C292.6,255.5,294.6,255.5,296.7,255.5
		z"/>
	<path class="st0" d="M325.2,199.9L325.2,199.9z"/>
	<path class="st0" d="M333.7,237.5c-0.8,6.4-2.8,18.1-29.5,18.1l-30.3,0v-11.9c0,0,31.8,0.2,35.4-0.3c3.7-0.5,6.9-2,9.4-4.8
		c1.9-2.1,2-5.4,0.3-7.6c-2.7-3.6-6.5-4.8-10.8-5.3c-4.7-0.7-9.5,0.1-14.1-0.4c-7.4-0.7-14.3-3.1-18.7-9.6
		c-4.8-7.2-3.4-16.5,4.7-22.2c5.5-3.8,11.9-5,18.4-5.2c2.1,0,29.9-0.1,29.9-0.1v11.9c0,0-26.6,0-28.1,0.1c-2.8,0.1-5.8-0.1-8.4,1.6
		c-2.2,1.4-3.6,3.2-3.3,5.8c0.3,2.9,2.3,4.6,4.8,5.7c1.3,0.5,2.8,0.8,4.2,0.9c5.3,0.2,10.6-0.2,15.9,0.6c8.5,1.3,15,5.2,19,13
		C334.2,230.8,334.1,234.1,333.7,237.5z"/>
</g>
</svg>
